<?xml version="1.0" encoding="UTF-8" standalone="no"?>
<!-- Created with Inkscape (http://www.inkscape.org/) -->

<svg
   width="126.80629mm"
   height="114.56549mm"
   viewBox="0 0 126.80629 114.56549"
   version="1.1"
   id="svg1"
   xmlns="http://www.w3.org/2000/svg"
   xmlns:svg="http://www.w3.org/2000/svg">
  <defs
     id="defs1" />
  <g
     id="layer4"
     transform="translate(-45.823236,-84.359129)">
    <g
       id="g6"
       transform="translate(4.2263907,-9.9896502)">
      <path
         id="path1"
         style="opacity:1;fill:#ff0000;fill-opacity:1;stroke:none;stroke-width:1.2"
         transform="translate(49.672703,74.528082)"
         d="M 101.0106,134.38619 H 9.643989 A 17.719842,17.719842 60 0 1 -5.701844,107.80643 L 39.981465,28.680615 a 17.719841,17.719841 4.8726303e-7 0 1 30.691666,1e-6 l 45.683309,79.125814 a 17.719842,17.719842 120 0 1 -15.34584,26.57976 z" />
      <path
         id="path1-2"
         style="display:inline;opacity:1;fill:none;fill-opacity:1;stroke:#ffffff;stroke-width:8.57492;stroke-dasharray:none;stroke-opacity:1"
         transform="matrix(0.75082366,0,0,0.75082366,63.458958,96.571461)"
         d="M 111.85852,134.38619 H -1.203927 A 11.456794,11.456794 60 0 1 -11.125802,117.201 L 45.405423,19.286045 a 11.456794,11.456794 4.8726301e-7 0 1 19.84375,0 L 121.7804,117.201 a 11.456795,11.456795 120 0 1 -9.92188,17.18519 z" />
      <circle
         style="opacity:1;fill:#ffffff;fill-opacity:1;stroke:none;stroke-width:3.44117;stroke-dasharray:none;stroke-opacity:1"
         id="path3"
         cx="105"
         cy="180.04955"
         r="5.186934" />
      <rect
         style="opacity:1;fill:#ffffff;fill-opacity:1;stroke:#ffffff;stroke-width:5.15076;stroke-dasharray:none;stroke-opacity:1"
         id="rect6"
         width="1.4992458"
         height="37.181438"
         x="104.25037"
         y="128.03191"
         ry="4.4977565" />
    </g>
  </g>
</svg>
